<?xml version="1.0" encoding="UTF-8"?>
<svg width="164" height="40" viewBox="0 0 330 56" version="1.1" xmlns="http://www.w3.org/2000/svg" xmlns:xlink="http://www.w3.org/1999/xlink">
    <title>logo</title>
    <g id="2021-09-28" stroke="none" stroke-width="1" fill="none" fill-rule="evenodd">
        <g id="ap-main" transform="translate(-798.000000, -81.000000)" fill-rule="nonzero">
            <g id="logo" transform="translate(798.000000, 81.000000)">
                <path d="M22.7421585,28.5591743 L22.7421585,25.8526907 C22.7421585,22.543341 20.7603968,20.2986271 14.8728329,20.2986271 C11.7687143,20.2986271 10.2487223,20.3820022 8.74155727,20.7924642 L3.07205131,15.0716505 C7.59888553,14.1421798 12.2019786,13.6333491 16.8225273,13.5516585 C25.6218058,13.5516585 30.9321575,17.8486822 30.9321575,26.378595 L30.9321575,50.4483415 L23.9350636,50.4483415 L23.3386111,46.41427 L23.0756589,46.41427 C19.1762702,49.2554364 15.1421986,50.9036978 11.2363964,50.9036978 C5.09229382,50.9036978 0,47.2672612 0,39.731436 C0,32.7856499 5.02174567,28.5527608 13.4682834,28.5527608 L22.7421585,28.5591743 Z M22.7421585,34.3312957 L14.6804289,34.3312957 C10.2487223,34.3312957 8.19641247,36.0501052 8.19641247,39.1606373 C8.19641247,42.5277082 10.5758092,44.182383 13.8851588,44.182383 C17.0800544,44.0492149 20.1631293,42.9686875 22.7421585,41.0782644 L22.7421585,34.3312957 Z" id="Shape" fill="currentColor"/>
                <path d="M54.4759996,13.5516585 C56.7390586,13.5746497 58.9961085,13.7891982 61.2229682,14.1930053 L61.2229682,0 L69.2846979,8.08097004 L69.2846979,50.4483415 L62.6788255,50.4483415 C62.4094599,49.9801583 62.1465077,48.1972141 61.8835555,47.7354444 C58.4251254,49.8823845 54.4479821,51.0484812 50.3777934,51.1089288 C42.9702375,51.1089288 36.2296823,46.5425393 36.2296823,33.3243812 C36.2296823,18.2463173 44.2978254,13.5516585 54.4759996,13.5516585 Z M52.2954204,44.2336908 C54.9377693,44.2336908 58.1124361,43.1113338 61.1524201,41.3861108 L61.1524201,20.9592144 C59.2361333,20.5802601 57.2887205,20.3805805 55.3354043,20.3627618 C47.8637138,20.3627618 44.5607776,24.063333 44.5607776,32.9267462 C44.5607776,40.8602064 47.6007616,44.2336908 52.2954204,44.2336908 Z" id="Shape" fill="currentColor"/>
                <path d="M76.7563884,64 L76.7563884,14.3469285 L84.8245315,14.3469285 L84.8245315,18.1180479 C88.7880549,15.2063333 92.9568093,13.6286201 96.856198,13.6286201 C103.795571,13.6286201 109.811404,18.9197314 109.811404,31.4837158 C109.811404,45.702375 102.609079,51.0512075 92.7579918,51.0512075 C90.0856395,51.008842 87.4256984,50.6776933 84.8245315,50.0635334 L84.8245315,55.9446838 L76.7563884,64 Z M94.2779838,20.7603968 C91.5650867,20.7603968 88.2621505,22.0430905 84.8245315,24.460968 L84.8245315,43.3550456 C87.0928385,43.945753 89.4208622,44.2770983 91.7639042,44.3427197 C98.4403247,44.3427197 101.486722,40.045696 101.486722,31.9134182 C101.486722,23.9991983 98.5108728,20.7603968 94.2779838,20.7603968 Z" id="Shape" fill="currentColor"/>
                <path d="M131.630023,13.5516585 C141.545245,13.5516585 149.812206,19.105722 149.812206,32.3944283 C149.812206,45.6831346 141.545245,51.2436116 131.630023,51.2436116 C121.714801,51.2436116 113.511975,45.8178174 113.511975,32.3944283 C113.511975,18.9710392 121.721215,13.5516585 131.630023,13.5516585 Z M131.694158,44.2978254 C138.569396,44.2978254 141.416976,39.8661188 141.416976,32.3944283 C141.416976,24.9227377 138.569396,20.5615793 131.694158,20.5615793 C124.81892,20.5615793 121.84307,24.9932859 121.84307,32.3944283 C121.84307,39.7955707 124.754785,44.2978254 131.694158,44.2978254 L131.694158,44.2978254 Z" id="Shape" fill="currentColor"/>
                <path d="M155.295721,64 L155.295721,14.3469285 L163.363864,14.3469285 L163.363864,18.1180479 C167.327388,15.2063333 171.496142,13.6286201 175.395531,13.6286201 C182.341317,13.6286201 188.35715,18.9197314 188.35715,31.4837158 C188.35715,45.702375 181.148412,51.0512075 171.297324,51.0512075 C168.624997,51.008492 165.965093,50.6773479 163.363864,50.0635334 L163.363864,55.9767512 L155.295721,64 Z M172.817316,20.7603968 C170.104419,20.7603968 166.801483,22.0430905 163.363864,24.460968 L163.363864,43.3550456 C165.632258,43.9453196 167.960232,44.2766579 170.303237,44.3427197 C176.986071,44.3427197 180.026055,40.045696 180.026055,31.9134182 C180.026055,23.9991983 177.050205,20.7603968 172.817316,20.7603968 L172.817316,20.7603968 Z" id="Shape" fill="currentColor"/>
                <path d="M221.412166,42.5084678 L221.412166,49.5632829 C217.724718,50.6850182 213.888884,51.242879 210.034673,51.2179577 C201.312356,51.2179577 192.076962,47.2480208 192.076962,32.3687744 C192.076962,17.489528 201.33801,13.5260046 210.034673,13.5260046 C213.888884,13.5010833 217.724718,14.0589442 221.412166,15.1806794 L221.412166,22.3188696 C218.144754,21.2471898 214.730325,20.6911011 211.291713,20.6706083 C204.236897,20.6706083 200.318268,24.2364966 200.318268,32.3687744 C200.318268,39.3145606 203.627618,44.1374887 211.291713,44.1374887 C214.726641,44.0915423 218.136317,43.5427099 221.412166,42.5084678 L221.412166,42.5084678 Z" id="Path" fill="currentColor"/>
                <path d="M242.698467,13.5516585 C252.613689,13.5516585 260.880649,19.105722 260.880649,32.3944283 C260.880649,45.6831346 252.613689,51.2436116 242.698467,51.2436116 C232.783245,51.2436116 224.580419,45.8178174 224.580419,32.3944283 C224.580419,18.9710392 232.783245,13.5516585 242.698467,13.5516585 Z M242.769015,44.2978254 C249.637839,44.2978254 252.485419,39.8661188 252.485419,32.3944283 C252.485419,24.9227377 249.637839,20.5615793 242.769015,20.5615793 C235.90019,20.5615793 232.911514,24.9932859 232.911514,32.3944283 C232.911514,39.7955707 235.823229,44.2978254 242.769015,44.2978254 L242.769015,44.2978254 Z" id="Shape" fill="currentColor"/>
                <path d="M287.721014,22.543341 C282.962221,23.2744764 279.255236,24.9227377 274.432308,27.0327688 L274.432308,50.441928 L266.364165,50.441928 L266.364165,14.3469285 L274.060327,14.3469285 L274.060327,20.4268965 C277.959715,17.9192304 282.057922,14.4816114 287.746668,14.148111 L287.721014,22.543341 Z" id="Path" fill="currentColor"/>
                <path d="M315.093697,50.4483415 L315.093697,25.7180078 C315.093697,22.6138892 313.766109,20.8950797 310.264355,20.8950797 C307.288506,20.8950797 303.389117,22.543341 299.752681,24.5251027 L299.752681,50.4483415 L291.678124,50.4483415 L291.678124,14.3469285 L299.220363,14.3469285 L299.220363,18.3810001 L299.483315,18.3810001 C304.107426,15.6039683 308.673815,13.5516585 312.701473,13.5516585 C319.249624,13.5516585 323.149013,16.8610081 323.149013,24.1980158 L323.149013,50.4483415 L315.093697,50.4483415 Z" id="Path" fill="currentColor"/>
                <polygon id="Path" fill="#A5CA4F" points="137.960116 10.6655978 137.960116 0 127.294518 0"/>
                <polygon id="Path" fill="#54AFA9" points="247.611183 10.6655978 247.611183 0 236.945586 0"/>
            </g>
        </g>
    </g>
</svg>
